<svg width="18" height="18" viewBox="0 0 18 18" fill="none" xmlns="http://www.w3.org/2000/svg">
<path d="M9.17188 0.265625C6.86271 0.265625 6.57442 0.27625 5.66775 0.316625C4.7625 0.359125 4.14625 0.5015 3.60438 0.711875C3.0455 0.928625 2.57092 1.21975 2.09846 1.69221C1.626 2.16467 1.33417 2.63854 1.11812 3.19813C0.90775 3.74 0.764667 4.35625 0.722875 5.2615C0.680375 6.16817 0.671875 6.45646 0.671875 8.76562C0.671875 11.0748 0.6825 11.3631 0.722875 12.2698C0.765375 13.1743 0.90775 13.7913 1.11812 14.3331C1.33487 14.8913 1.626 15.3666 2.09846 15.8391C2.57092 16.3108 3.04479 16.6033 3.60438 16.8194C4.14696 17.0291 4.76321 17.1728 5.66775 17.2146C6.57442 17.2571 6.86271 17.2656 9.17188 17.2656C11.4811 17.2656 11.7693 17.255 12.676 17.2146C13.5806 17.1721 14.1975 17.0291 14.7394 16.8194C15.2976 16.6026 15.7728 16.3108 16.2453 15.8391C16.7171 15.3666 17.0096 14.8934 17.2256 14.3331C17.4353 13.7913 17.5791 13.1743 17.6209 12.2698C17.6634 11.3631 17.6719 11.0748 17.6719 8.76562C17.6719 6.45646 17.6613 6.16817 17.6209 5.2615C17.5784 4.35696 17.4353 3.73929 17.2256 3.19813C17.0089 2.63925 16.7171 2.16467 16.2453 1.69221C15.7728 1.21975 15.2997 0.927917 14.7394 0.711875C14.1975 0.5015 13.5806 0.358417 12.676 0.316625C11.7693 0.274125 11.4811 0.265625 9.17188 0.265625ZM9.17188 1.79562C11.4407 1.79562 11.7113 1.80696 12.6073 1.84592C13.4361 1.88487 13.8858 2.02229 14.1848 2.13987C14.5828 2.29358 14.8647 2.47775 15.1637 2.77454C15.4604 3.07204 15.6446 3.35467 15.7983 3.75275C15.9145 4.05167 16.0533 4.50146 16.0909 5.33021C16.1312 6.22696 16.1404 6.49613 16.1404 8.76562C16.1404 11.0351 16.1298 11.305 16.0881 12.2011C16.0448 13.0298 15.9067 13.4796 15.7898 13.7785C15.6312 14.1766 15.4506 14.4585 15.1531 14.7574C14.8562 15.0542 14.5694 15.2384 14.1756 15.3921C13.8781 15.5082 13.4212 15.6471 12.5924 15.6846C11.69 15.725 11.4244 15.7342 9.15063 15.7342C6.87617 15.7342 6.61054 15.7236 5.70883 15.6818C4.87937 15.6386 4.4225 15.5004 4.125 15.3836C3.72196 15.2249 3.445 15.0443 3.14821 14.7468C2.85 14.45 2.65946 14.1631 2.51071 13.7693C2.39383 13.4718 2.25642 13.0149 2.21321 12.1862C2.18133 11.2937 2.17 11.0181 2.17 8.755C2.17 6.49117 2.18133 6.21492 2.21321 5.31179C2.25642 4.48304 2.39383 4.02688 2.51071 3.72937C2.65946 3.32562 2.85 3.04938 3.14821 2.75117C3.445 2.45438 3.72196 2.26312 4.125 2.11508C4.4225 1.9975 4.86946 1.85938 5.69821 1.81688C6.60133 1.785 6.86696 1.77438 9.14 1.77438L9.17188 1.79562ZM9.17188 4.40088C6.76 4.40088 4.80713 6.35588 4.80713 8.76562C4.80713 11.1775 6.76213 13.1304 9.17188 13.1304C11.5837 13.1304 13.5366 11.1754 13.5366 8.76562C13.5366 6.35375 11.5816 4.40088 9.17188 4.40088ZM9.17188 11.5989C7.60646 11.5989 6.33854 10.3311 6.33854 8.76562C6.33854 7.20021 7.60646 5.93229 9.17188 5.93229C10.7373 5.93229 12.0052 7.20021 12.0052 8.76562C12.0052 10.3311 10.7373 11.5989 9.17188 11.5989ZM14.7294 4.22875C14.7294 4.79187 14.2719 5.24875 13.7094 5.24875C13.1463 5.24875 12.6894 4.79117 12.6894 4.22875C12.6894 3.66633 13.1471 3.20946 13.7094 3.20946C14.2712 3.20875 14.7294 3.66633 14.7294 4.22875Z" fill="#EFD28D"/>
</svg>
