<svg width="17" height="17" viewBox="0 0 17 17" fill="none" xmlns="http://www.w3.org/2000/svg">
<path d="M14.875 2.125H2.125C0.951469 2.125 0 3.07647 0 4.25V12.75C0 13.9235 0.951469 14.875 2.125 14.875H14.875C16.0485 14.875 17 13.9235 17 12.75V4.25C17 3.07647 16.0485 2.125 14.875 2.125ZM11.3773 7.79546L15.8752 3.94078C15.9064 4.04039 15.9375 4.14 15.9375 4.25V12.75C15.9375 12.8237 15.9095 12.8891 15.895 12.9585L11.3773 7.79546ZM14.875 3.1875C14.9456 3.1875 15.0078 3.21449 15.0742 3.22797L8.5 8.86318L1.92578 3.22797C1.99219 3.21449 2.05444 3.1875 2.125 3.1875H14.875ZM1.10454 12.9575C1.08999 12.888 1.0625 12.8237 1.0625 12.75V4.25C1.0625 4.14 1.09414 4.04039 1.12529 3.94078L5.62172 7.79443L1.10454 12.9575ZM2.125 13.8125C2.01762 13.8125 1.92007 13.7814 1.82202 13.7513L6.42896 8.48649L8.15449 9.96505C8.25357 10.0512 8.37705 10.0938 8.5 10.0938C8.62295 10.0938 8.74643 10.0512 8.84551 9.96509L10.571 8.48652L15.178 13.7513C15.0805 13.7814 14.9829 13.8125 14.875 13.8125H2.125Z" fill="#EFD28D"/>
</svg>
