<svg width="110" height="110" viewBox="0 0 110 110" fill="none" xmlns="http://www.w3.org/2000/svg">
<g clip-path="url(#clip0_59_5)">
<path d="M46.1808 14.8177C42.2647 14.8177 39.0898 17.9927 39.0898 21.9088C39.0898 25.825 42.2647 28.9999 46.1808 28.9999H102.909C106.825 28.9999 110 25.825 110 21.9088C110 17.9927 106.825 14.8177 102.909 14.8177H46.1808Z" fill="url(#paint0_linear_59_5)"/>
<path d="M102.909 47.9089H46.1808C42.2647 47.9089 39.0898 51.0839 39.0898 55C39.0898 58.9162 42.2647 62.0911 46.1808 62.0911H102.909C106.825 62.0911 110 58.9162 110 55C110 51.0839 106.825 47.9089 102.909 47.9089Z" fill="url(#paint1_linear_59_5)"/>
<path d="M102.909 81.0004H46.1808C42.2647 81.0004 39.0898 84.1753 39.0898 88.0915C39.0898 92.0076 42.2647 95.1825 46.1808 95.1825H102.909C106.825 95.1825 110 92.0076 110 88.0915C110 84.1751 106.825 81.0004 102.909 81.0004Z" fill="url(#paint2_linear_59_5)"/>
<path d="M25.9253 51.7707C25.5083 50.4873 24.3989 49.5516 23.063 49.3579L18.3407 48.6714L16.229 44.3922C15.6316 43.182 14.3997 42.4156 13.0494 42.4156C11.7002 42.4156 10.4674 43.182 9.8697 44.3922L7.75758 48.6714L3.03599 49.3579C1.70053 49.5521 0.590438 50.4873 0.173643 51.7707C-0.243366 53.0542 0.104679 54.4629 1.0704 55.405L4.48725 58.7355L3.6803 63.4393C3.45192 64.7692 3.99891 66.1136 5.09053 66.9068C5.70842 67.3559 6.43931 67.5842 7.17472 67.5842C7.73868 67.5842 8.30543 67.4495 8.82406 67.1771L13.0485 64.9563L17.273 67.1771C17.792 67.45 18.3583 67.5842 18.9223 67.5842C18.9255 67.5842 18.9294 67.5842 18.9322 67.5842C20.8903 67.5838 22.4773 65.9968 22.4773 64.0387C22.4773 63.7413 22.441 63.452 22.3718 63.1759L21.6098 58.7355L25.0266 55.405C25.9943 54.4629 26.3423 53.0542 25.9253 51.7707Z" fill="url(#paint3_linear_59_5)"/>
<path d="M25.9253 18.6794C25.5083 17.396 24.3989 16.4603 23.063 16.2665L18.3407 15.5801L16.229 11.3009C15.6316 10.0907 14.3997 9.32434 13.0494 9.32434C11.7002 9.32434 10.4674 10.0907 9.8697 11.3009L7.75758 15.5801L3.03599 16.2665C1.70053 16.4608 0.590653 17.396 0.173643 18.6794C-0.243366 19.9629 0.104679 21.3716 1.0704 22.3137L4.48725 25.6442L3.6803 30.348C3.45192 31.6778 3.99891 33.0221 5.09053 33.8155C5.70842 34.2645 6.43931 34.4929 7.17472 34.4929C7.73868 34.4929 8.30543 34.3582 8.82406 34.0858L13.0485 31.865L17.273 34.0858C17.792 34.3586 18.3583 34.4929 18.9223 34.4929C18.9255 34.4929 18.9294 34.4929 18.9322 34.4929C20.8903 34.4929 22.4773 32.9055 22.4773 30.9474C22.4773 30.65 22.441 30.3606 22.3718 30.0846L21.6098 25.6442L25.0266 22.3137C25.9943 21.3716 26.3423 19.9629 25.9253 18.6794Z" fill="url(#paint4_linear_59_5)"/>
<path d="M25.9256 84.8621C25.5086 83.5786 24.3992 82.6429 23.0633 82.4492L18.3411 81.7627L16.2294 77.4835C15.6319 76.2733 14.4 75.507 13.0497 75.507C11.7005 75.507 10.4677 76.2733 9.87003 77.4835L7.75792 81.7627L3.03632 82.4492C1.70086 82.6429 0.590772 83.5786 0.173977 84.8621C-0.242817 86.1455 0.105013 87.5542 1.07073 88.4963L4.48758 91.8268L3.68064 96.5302C3.45226 97.8605 3.99925 99.2049 5.09086 99.9981C5.70875 100.447 6.43964 100.676 7.17505 100.676C7.73901 100.676 8.30577 100.541 8.82439 100.268L13.0488 98.0476L17.2733 100.268C17.7924 100.541 18.3587 100.676 18.9226 100.676C18.9259 100.676 18.9297 100.676 18.9325 100.676C20.8906 100.675 22.4776 99.0881 22.4776 97.13C22.4776 96.8327 22.4413 96.5433 22.3721 96.2672L21.6101 91.8268L25.027 88.4963C25.9946 87.5542 26.3427 86.1455 25.9256 84.8621Z" fill="url(#paint5_linear_59_5)"/>
</g>
<defs>
<linearGradient id="paint0_linear_59_5" x1="74.5449" y1="14.8177" x2="74.5449" y2="28.9999" gradientUnits="userSpaceOnUse">
<stop stop-color="#0CDF3B"/>
<stop offset="1" stop-color="#00AFB5"/>
</linearGradient>
<linearGradient id="paint1_linear_59_5" x1="74.5449" y1="47.9089" x2="74.5449" y2="62.0911" gradientUnits="userSpaceOnUse">
<stop stop-color="#0CDF3B"/>
<stop offset="1" stop-color="#00AFB5"/>
</linearGradient>
<linearGradient id="paint2_linear_59_5" x1="74.5449" y1="81.0004" x2="74.5449" y2="95.1825" gradientUnits="userSpaceOnUse">
<stop stop-color="#0CDF3B"/>
<stop offset="1" stop-color="#00AFB5"/>
</linearGradient>
<linearGradient id="paint3_linear_59_5" x1="13.0495" y1="42.4156" x2="13.0495" y2="67.5842" gradientUnits="userSpaceOnUse">
<stop stop-color="#0CDF3B"/>
<stop offset="1" stop-color="#00AFB5"/>
</linearGradient>
<linearGradient id="paint4_linear_59_5" x1="13.0495" y1="9.32434" x2="13.0495" y2="34.4929" gradientUnits="userSpaceOnUse">
<stop stop-color="#0CDF3B"/>
<stop offset="1" stop-color="#00AFB5"/>
</linearGradient>
<linearGradient id="paint5_linear_59_5" x1="13.0498" y1="75.507" x2="13.0498" y2="100.676" gradientUnits="userSpaceOnUse">
<stop stop-color="#0CDF3B"/>
<stop offset="1" stop-color="#00AFB5"/>
</linearGradient>
<clipPath id="clip0_59_5">
<rect width="110" height="110" fill="white"/>
</clipPath>
</defs>
</svg>
